{
  "asset": {
    "generator": "Khronos glTF Blender I/O v1.3.48",
    "version": "2.0"
  },
  "buffers": [
    {
      "uri": "data:application/octet-stream;base64,",
      "byteLength": 85982
    }
  ],
  "bufferViews": [
    {
      "buffer": 0,
      "byteOffset": 0,
      "byteLength": 25500,
      "byteStride": 12,
      "target": 34962
    },
    {
      "buffer": 0,
      "byteOffset": 25500,
      "byteLength": 25500,
      "byteStride": 12,
      "target": 34962
    },
    {
      "buffer": 0,
      "byteOffset": 51000,
      "byteLength": 17000,
      "byteStride": 8,
      "target": 34962
    },
    {
      "buffer": 0,
      "byteOffset": 68000,
      "byteLength": 17982,
      "target": 34963
    }
  ],
  "accessors": [
    {
      "bufferView": 0,
      "byteOffset": 0,
      "componentType": 5126,
      "normalized": false,
      "count": 2125,
      "min": [
        -31.852432250976562,
        -83.2976303100586,
        -39.2305793762207
      ],
      "max": [
        27.289840698242188,
        93.32064056396484,
        36.4491081237793
      ],
      "type": "VEC3"
    },
    {
      "bufferView": 1,
      "byteOffset": 0,
      "componentType": 5126,
      "normalized": false,
      "count": 2125,
      "min": [
        -0.9998233318328857,
        -0.9975205659866333,
        -0.999798059463501
      ],
      "max": [
        0.9999959468841553,
        0.9962159395217896,
        0.999797523021698
      ],
      "type": "VEC3"
    },
    {
      "bufferView": 2,
      "byteOffset": 0,
      "componentType": 5126,
      "normalized": false,
      "count": 2125,
      "min": [
        0.006949999835342169,
        0.021319985389709473
      ],
      "max": [
        0.9935600161552429,
        0.997810959815979
      ],
      "type": "VEC2"
    },
    {
      "bufferView": 3,
      "byteOffset": 0,
      "componentType": 5123,
      "normalized": false,
      "count": 8991,
      "min": [
        0
      ],
      "max": [
        2124
      ],
      "type": "SCALAR"
    }
  ],
  "scene": 0,
  "scenes": [
    {
      "nodes": [
        0
      ],
      "name": "Scene"
    }
  ],
  "nodes": [
    {
      "name": "Desirefxme_GTP_CMan_Spg_Mark_20_Wk_Sd_Lsn_Bgr214",
      "matrix": [
        1.026856266683751e-9,
        0,
        -0.029999997466802597,
        0,
        0,
        0.012000000104308128,
        0,
        0,
        0.029999997466802597,
        0,
        1.026856266683751e-9,
        0,
        0,
        0.9757190942764282,
        0,
        1
      ],
      "mesh": 0
    }
  ],
  "meshes": [
    {
      "primitives": [
        {
          "material": 0,
          "mode": 4,
          "attributes": {
            "POSITION": 0,
            "NORMAL": 1,
            "TEXCOORD_0": 2
          },
          "indices": 3
        }
      ]
    }
  ],
  "materials": [
    {
      "pbrMetallicRoughness": {
        "baseColorFactor": [
          0.9607843137254902,
          0.1568627450980392,
          0.1568627450980392,
          1
        ],
        "metallicFactor": 0,
        "roughnessFactor": 0.858578622341156,
        "baseColorTexture": {
          "index": 0,
          "texCoord": 0
        }
      },
      "emissiveFactor": [
        0,
        0,
        0
      ],
      "alphaMode": "OPAQUE",
      "doubleSided": true,
      "normalTexture": {
        "index": 1,
        "texCoord": 0,
        "scale": 0.30000001192092896
      }
    }
  ],
  "textures": [
    {
      "sampler": 0,
      "source": 0
    },
    {
      "sampler": 1,
      "source": 1
    }
  ],
  "samplers": [
    {
      "magFilter": 9729,
      "minFilter": 9987,
      "wrapS": 10497,
      "wrapT": 10497
    },
    {
      "magFilter": 9729,
      "minFilter": 9987,
      "wrapS": 10497,
      "wrapT": 10497
    }
  ],
  "images": [
    {
      "uri": "data:image/png;base64,",
      "mimeType": "image/png"
    },
    {
      "uri": "data:image/png;base64,",
      "mimeType": "image/png"
    }
  ]
}